<?xml version="1.0" standalone="no"?>
<!DOCTYPE svg PUBLIC "-//W3C//DTD SVG 20010904//EN"
 "http://www.w3.org/TR/2001/REC-SVG-20010904/DTD/svg10.dtd">
<svg version="1.0" xmlns="http://www.w3.org/2000/svg"
 width="300" height="300" viewBox="0 0 826.000000 663.000000"
 preserveAspectRatio="xMidYMid meet">

<g transform="translate(0.000000,663.000000) scale(0.100000,-0.100000)"
fill="#567c8d" stroke="none">

<path d="M3937 5360 c-948 -100 -1700 -816 -1842 -1755 -19 -130 -20 -436 0
-573 75 -530 340 -996 756 -1331 611 -493 1471 -590 2176 -247 238 116 394
227 573 406 333 332 536 761 590 1245 51 461 -88 990 -365 1385 -146 209 -388
436 -616 577 -301 188 -648 288 -1024 298 -88 2 -200 0 -248 -5z m273 -402 c5
-13 21 -86 35 -163 15 -77 29 -150 32 -162 4 -18 1 -23 -15 -23 -15 0 -21 9
-26 35 -7 34 -8 35 -56 35 -46 0 -49 -2 -55 -30 -7 -33 -22 -47 -35 -34 -7 8
69 328 84 353 11 18 26 13 36 -11z m-290 -5 c0 -5 -12 -40 -26 -79 l-26 -72
61 -91 c34 -49 61 -95 61 -101 0 -29 -35 -2 -81 65 -28 41 -55 75 -60 75 -16
0 -21 -47 -10 -106 11 -58 2 -90 -18 -68 -7 7 -71 320 -71 347 0 5 8 7 17 5
13 -2 21 -23 33 -83 l16 -80 28 80 c16 44 33 88 38 98 9 17 38 24 38 10z m628
-28 c12 -3 22 -12 22 -21 0 -13 -7 -15 -38 -9 l-39 6 -33 -160 c-22 -107 -38
-161 -46 -161 -7 0 -15 4 -18 8 -2 4 11 77 29 162 35 159 34 169 -7 170 -19 0
-32 16 -24 29 5 8 31 4 154 -24z m222 -89 c0 -7 -27 -75 -60 -150 -33 -76 -60
-139 -60 -142 0 -2 25 -15 55 -29 53 -23 72 -45 39 -45 -27 0 -134 52 -134 65
0 10 109 265 132 308 10 19 28 14 28 -7z m-1227 2 c28 -15 46 -38 47 -60 0
-26 -19 -22 -42 7 -32 41 -88 28 -88 -20 0 -32 38 -61 104 -79 77 -23 106 -52
106 -109 0 -65 -52 -101 -109 -77 -31 12 -57 52 -47 69 11 17 22 13 34 -13 21
-47 92 -32 92 20 0 35 -31 60 -99 80 -84 23 -113 54 -109 113 3 41 7 48 38 63
41 21 45 21 73 6z m797 -474 c218 -41 416 -149 571 -312 203 -212 299 -452
299 -746 0 -273 -97 -522 -280 -718 -165 -178 -359 -287 -594 -333 -121 -23
-343 -17 -466 14 -203 52 -425 194 -563 361 -243 295 -309 717 -167 1075 131
331 407 568 755 650 124 29 319 33 445 9z m-1700 -1711 c0 -4 -10 -17 -22 -30
l-21 -23 39 -1 c36 -1 34 -2 -21 -14 -33 -7 -72 -17 -87 -23 -40 -16 -35 5 5
22 17 7 45 28 61 45 28 30 46 39 46 24z m3084 -33 c36 -17 66 -35 66 -40 0 -6
-11 -5 -27 3 -16 8 -38 17 -50 21 -18 6 -20 4 -16 -14 4 -15 0 -20 -13 -20
-11 -1 2 -12 31 -27 72 -38 41 -39 -38 -2 -73 33 -84 49 -37 49 33 0 38 11 15
30 -16 14 -20 30 -6 30 4 0 38 -14 75 -30z m-3019 -100 c24 -26 14 -45 -42
-80 -54 -35 -88 -38 -103 -11 -16 30 -2 50 59 81 68 35 64 35 86 10z m2875
-19 c-15 -29 -13 -39 12 -52 18 -10 24 -8 36 7 14 18 14 18 9 -4 -4 -17 1 -27
19 -39 14 -8 26 -14 28 -12 1 2 10 15 19 29 12 17 17 20 17 8 0 -9 -8 -26 -18
-38 l-19 -23 -71 42 -72 42 15 29 c9 17 20 30 26 30 6 0 6 -6 -1 -19z m-2821
-94 c-9 -7 -37 -27 -63 -44 -25 -18 -46 -39 -46 -48 0 -24 37 -18 83 13 60 41
67 44 67 34 0 -14 -107 -82 -129 -82 -25 0 -45 34 -33 55 11 21 103 84 122 84
13 0 12 -2 -1 -12z m2881 -98 c0 -6 -13 -1 -30 11 -16 12 -34 18 -40 15 -18
-11 -11 -33 17 -53 16 -11 25 -23 21 -27 -4 -4 -36 14 -73 40 -36 26 -64 50
-61 53 3 2 17 -3 31 -12 21 -14 29 -15 41 -5 20 16 18 22 -16 43 -17 9 -28 21
-25 26 6 10 135 -77 135 -91z m-205 -28 c-4 -13 9 -30 50 -66 73 -62 63 -72
-11 -11 -32 26 -63 45 -71 42 -19 -8 -16 5 9 31 26 28 31 29 23 4z m-2515 -86
c0 -21 -48 -74 -86 -93 -16 -9 -26 -7 -42 4 -12 8 -22 21 -22 27 0 7 26 35 57
64 54 47 59 50 76 36 9 -9 17 -26 17 -38z m2365 -75 c-17 -19 -17 -21 0 -40
11 -12 25 -18 36 -15 13 4 16 1 13 -12 -3 -11 3 -27 15 -37 20 -18 22 -18 41
-1 11 10 20 13 20 8 0 -9 -42 -43 -54 -43 -2 0 -28 27 -56 60 -51 59 -52 61
-35 80 10 11 23 20 28 20 6 0 2 -9 -8 -20z m-2267 -19 c5 -34 -73 -113 -108
-109 -43 5 -38 44 12 95 49 50 90 57 96 14z m2210 -81 c5 -13 3 -13 -11 -1
-19 15 -47 8 -47 -12 0 -19 69 -97 85 -97 21 0 27 17 15 41 -7 12 -18 18 -26
15 -16 -6 -19 10 -3 19 15 10 49 -24 49 -50 0 -25 -18 -45 -40 -45 -17 0 -100
95 -100 114 0 34 68 48 78 16z m-2053 -36 c25 -20 26 -24 9 -19 -18 4 -30 -6
-66 -55 -25 -33 -48 -57 -51 -54 -3 3 14 33 39 66 35 47 42 64 33 74 -19 23 4
16 36 -12z m1966 -83 l64 -59 -35 1 c-30 2 -35 -1 -34 -20 2 -52 -13 -26 -73
125 -11 26 17 10 78 -47z m-1905 -9 c-11 -22 -12 -32 -3 -41 17 -17 25 -14 42
19 9 17 20 30 26 30 11 0 1 -21 -48 -99 -36 -56 -56 -65 -28 -12 9 18 13 36
10 41 -11 18 -35 10 -47 -15 -12 -26 -34 -36 -24 -10 3 8 22 40 41 71 37 58
58 69 31 16z m1797 -57 c55 -95 51 -106 -19 -49 -49 40 -54 38 -23 -12 11 -19
19 -39 17 -45 -3 -10 -88 120 -88 135 0 14 21 4 60 -29 23 -19 44 -35 47 -35
3 0 -7 20 -21 44 -28 47 -31 56 -18 56 4 0 24 -29 45 -65z m-1622 4 c24 -21
19 -21 -28 -2 -7 3 -18 -7 -25 -23 -10 -22 -10 -28 0 -32 6 -2 12 -8 12 -14 0
-5 -8 -7 -18 -4 -13 5 -22 -1 -30 -19 -10 -22 -9 -27 14 -41 13 -9 23 -19 20
-21 -5 -5 -66 25 -66 33 0 18 73 144 84 144 8 0 24 -9 37 -21z m1487 -79 c48
-61 60 -87 29 -61 -19 15 -47 3 -47 -20 0 -10 -4 -19 -8 -19 -7 0 -42 137 -42
164 0 17 20 -2 68 -64z m-1302 4 c13 -3 24 -10 24 -16 0 -5 -9 -7 -19 -3 -15
5 -22 -2 -32 -32 -21 -64 -40 -105 -46 -100 -3 3 5 35 17 72 19 56 20 68 8 82
-11 15 -11 16 5 10 11 -4 30 -10 43 -13z m1188 -60 c42 -116 19 -103 -27 16
-4 10 -6 8 -6 -7 -1 -26 -11 -29 -29 -11 -16 16 -15 0 3 -52 13 -37 14 -64 1
-49 -11 13 -57 151 -52 156 3 4 17 -4 30 -16 l23 -22 6 31 c4 16 11 30 15 30
5 0 22 -34 36 -76z m-1085 -31 c-1 -32 -5 -71 -9 -88 -7 -29 -8 -29 -15 -7 -8
24 -34 29 -53 10 -6 -6 -14 -10 -16 -7 -7 7 73 149 84 149 6 0 9 -26 9 -57z
m846 37 c-3 -5 -12 -10 -18 -10 -7 0 -18 -4 -25 -8 -19 -12 3 -66 23 -58 8 3
15 1 15 -4 0 -6 -7 -10 -16 -10 -12 0 -15 -6 -10 -22 3 -13 6 -28 6 -34 0 -6
14 -9 33 -7 27 3 29 2 14 -7 -10 -6 -27 -10 -39 -8 -19 2 -25 15 -39 78 -18
78 -17 85 16 93 35 8 46 7 40 -3z m-724 -10 c10 -6 19 -20 19 -30 0 -26 -16
-26 -23 1 -3 12 -12 19 -19 17 -21 -7 -20 -43 2 -63 26 -23 26 -71 1 -85 -11
-5 -22 -10 -25 -10 -10 0 -36 32 -36 46 0 22 17 17 23 -7 6 -24 30 -21 35 4 2
9 -6 30 -17 46 -26 36 -27 67 -3 80 21 13 20 13 43 1z m93 -53 l-5 -32 30 34
c37 41 52 35 20 -8 -20 -28 -21 -33 -9 -76 7 -25 10 -48 7 -52 -7 -6 -27 40
-27 63 0 8 -4 14 -9 14 -11 0 -21 -25 -21 -51 0 -10 -5 -19 -11 -19 -11 0 -10
19 7 133 3 20 10 35 15 32 4 -3 6 -20 3 -38z m506 -11 c0 -63 -9 -116 -20
-116 -5 0 -14 24 -22 53 l-13 52 -5 -55 c-3 -30 -9 -54 -15 -53 -9 2 -55 126
-55 151 0 27 18 1 31 -45 l14 -48 5 48 c3 26 9 49 14 50 5 1 17 -20 27 -48
l17 -50 1 58 c1 31 6 57 11 57 6 0 10 -24 10 -54z m-322 7 c4 -28 -14 -30 -21
-3 -3 13 -10 18 -21 14 -25 -10 -19 -38 14 -67 17 -15 30 -36 30 -46 0 -44
-72 -57 -78 -13 -4 28 14 29 21 1 7 -25 31 -20 35 7 2 11 -10 32 -28 49 -16
16 -30 36 -30 45 0 43 72 55 78 13z m63 -150 c-9 -16 -10 -15 -11 8 0 14 3 29
8 33 12 12 14 -22 3 -41z"/>
<path d="M4164 4805 c-18 -71 -19 -85 -7 -89 24 -10 63 -7 63 5 0 25 -23 155
-29 161 -4 5 -16 -30 -27 -77z"/>
<path d="M4050 3722 c-94 -47 -116 -194 -43 -290 14 -18 67 -67 119 -108 52
-41 101 -88 109 -104 32 -62 8 -158 -46 -185 -79 -41 -146 3 -159 105 -5 42
-7 45 -35 45 -30 0 -30 0 -27 -50 7 -105 72 -170 172 -170 105 0 170 72 170
188 0 99 -13 118 -157 234 -51 40 -100 87 -108 103 -30 58 -11 155 34 180 27
14 92 12 112 -3 27 -21 47 -61 54 -109 6 -45 8 -48 36 -48 27 0 29 3 29 39 0
143 -138 235 -260 173z"/>
<path d="M2620 2491 c-80 -49 -45 -83 36 -36 30 17 44 32 42 43 -5 26 -29 23
-78 -7z"/>
<path d="M2831 2180 c-28 -26 -41 -45 -37 -55 9 -23 27 -18 75 24 31 26 42 43
38 54 -10 26 -28 20 -76 -23z"/>
<path d="M2931 2076 c-42 -43 -50 -76 -18 -76 22 0 100 87 94 104 -10 26 -30
19 -76 -28z"/>
<path d="M5101 1892 c13 -37 20 -44 37 -33 8 5 3 16 -18 36 l-30 29 11 -32z"/>
<path d="M4860 1759 c0 -35 16 -57 31 -42 9 9 7 18 -10 39 l-21 27 0 -24z"/>
<path d="M3660 1657 c-10 -21 -11 -30 -2 -39 17 -17 24 -5 20 34 l-4 33 -14
-28z"/>
</g>
</svg>
